<?xml version="1.0" encoding="UTF-8" standalone="no"?>
<!-- Generator: Adobe Illustrator 19.0.0, SVG Export Plug-In . SVG Version: 6.00 Build 0)  -->

<svg
   version="1.1"
   id="Layer_1"
   x="0px"
   y="0px"
   viewBox="0 0 511.997 511.997"
   style="enable-background:new 0 0 511.997 511.997;"
   xml:space="preserve"
   sodipodi:docname="reshot-icon-tools-TCSYV7UP9Z.svg"
   inkscape:version="1.3.2 (091e20ef0f, 2023-11-25, custom)"
   inkscape:export-filename="lattice-qcd-tools-icon.png"
   inkscape:export-xdpi="96"
   inkscape:export-ydpi="96"
   xmlns:inkscape="http://www.inkscape.org/namespaces/inkscape"
   xmlns:sodipodi="http://sodipodi.sourceforge.net/DTD/sodipodi-0.dtd"
   xmlns="http://www.w3.org/2000/svg"
   xmlns:svg="http://www.w3.org/2000/svg"><sodipodi:namedview
   id="namedview25"
   pagecolor="#505050"
   bordercolor="#eeeeee"
   borderopacity="1"
   inkscape:showpageshadow="0"
   inkscape:pageopacity="0"
   inkscape:pagecheckerboard="0"
   inkscape:deskcolor="#505050"
   inkscape:zoom="0.64"
   inkscape:cx="207.03125"
   inkscape:cy="342.96875"
   inkscape:window-width="1920"
   inkscape:window-height="1043"
   inkscape:window-x="0"
   inkscape:window-y="0"
   inkscape:window-maximized="1"
   inkscape:current-layer="layer1"
   showguides="true"
   inkscape:export-bgcolor="#ffffffff" /><defs
   id="defs25" />












<g
   id="g11">
</g>
<g
   id="g12">
</g>
<g
   id="g13">
</g>
<g
   id="g14">
</g>
<g
   id="g15">
</g>
<g
   id="g16">
</g>
<g
   id="g17">
</g>
<g
   id="g18">
</g>
<g
   id="g19">
</g>
<g
   id="g20">
</g>
<g
   id="g21">
</g>
<g
   id="g22">
</g>
<g
   id="g23">
</g>
<g
   id="g24">
</g>
<g
   id="g25">
</g>
<g
   inkscape:groupmode="layer"
   id="layer1"
   inkscape:label="BG"
   style="display:inline"><g
     inkscape:label="GridCartesian:X6:Y6"
     transform="matrix(3.7537468,0,0,3.7537468,43.187649,43.187649)"
     id="g73"><g
       inkscape:label="MajorXGridlines"
       id="g67"><path
         style="fill:none;stroke:#000000;stroke-width:1"
         d="M 18.8976,0 V 113.386"
         inkscape:label="MajorXDiv1"
         id="path63" /><path
         style="fill:none;stroke:#000000;stroke-width:1"
         d="M 37.7953,0 V 113.386"
         inkscape:label="MajorXDiv2"
         id="path64" /><path
         style="fill:none;stroke:#000000;stroke-width:1"
         d="M 56.6929,0 V 113.386"
         inkscape:label="MajorXDiv3"
         id="path65" /><path
         style="fill:none;stroke:#000000;stroke-width:1"
         d="M 75.5906,0 V 113.386"
         inkscape:label="MajorXDiv4"
         id="path66" /><path
         style="fill:none;stroke:#000000;stroke-width:1"
         d="M 94.4882,0 V 113.386"
         inkscape:label="MajorXDiv5"
         id="path67" /></g><g
       inkscape:label="MajorYGridlines"
       id="g72"><path
         style="fill:none;stroke:#000000;stroke-width:1"
         d="M 0,18.8976 H 113.386"
         inkscape:label="MajorYDiv1"
         id="path68" /><path
         style="fill:none;stroke:#000000;stroke-width:1"
         d="M 0,37.7953 H 113.386"
         inkscape:label="MajorYDiv2"
         id="path69" /><path
         style="fill:none;stroke:#000000;stroke-width:1"
         d="M 0,56.6929 H 113.386"
         inkscape:label="MajorYDiv3"
         id="path70" /><path
         style="fill:none;stroke:#000000;stroke-width:1"
         d="M 0,75.5906 H 113.386"
         inkscape:label="MajorYDiv4"
         id="path71" /><path
         style="fill:none;stroke:#000000;stroke-width:1"
         d="M 0,94.4882 H 113.386"
         inkscape:label="MajorYDiv5"
         id="path72" /></g><rect
       x="0"
       y="0"
       width="113.38583"
       height="113.38583"
       style="fill:none;stroke:#000000;stroke-width:1"
       inkscape:label="Border"
       id="rect72" /></g></g><g
   inkscape:groupmode="layer"
   id="layer2"
   inkscape:label="FG"
   style="display:inline"><path
     style="fill:#959cb5;stroke-width:0.681818"
     d="m 412.1352,144.03773 -21.74181,21.74181 -34.84228,-9.33545 -9.33545,-34.84295 21.73909,-21.738417 c 4.83409,-4.834091 0.97773,-13.304318 -5.81114,-12.501137 -12.22295,1.446137 -24.06,6.897273 -33.38795,16.358864 -13.26954,13.46046 -18.24409,32.55273 -14.90318,50.24318 L 154.14203,313.67476 c -17.7825,-3.51409 -36.93,1.58864 -50.71023,15.36819 -9.286358,9.28568 -14.640676,21.0109 -16.069767,33.11249 -0.801137,6.78409 7.668409,10.63159 12.498408,5.80023 l 21.741819,-21.74182 34.84295,9.33546 9.33546,34.84227 -21.7391,21.73909 c -4.83409,4.83409 -0.97772,13.30432 5.81114,12.50045 12.22227,-1.44613 24.06,-6.89727 33.38796,-16.35886 13.26954,-13.45977 18.24409,-32.55204 14.90318,-50.2425 L 357.8543,198.31795 c 17.78249,3.51409 36.93136,-1.58864 50.71022,-15.3675 9.28636,-9.28636 14.64068,-21.01091 16.06977,-33.1125 0.80182,-6.78477 -7.66772,-10.63091 -12.49909,-5.80022 z"
     id="path1" /><rect
     x="-392.18997"
     y="-13.253044"
     transform="rotate(-135)"
     style="fill:#c84146;stroke-width:0.681812"
     width="30.166073"
     height="26.506107"
     id="rect1" /><path
     style="fill:#ff5050;stroke-width:0.681818"
     d="m 268.48566,251.25704 -17.2275,17.2275 c -7.32,7.32 -19.18772,7.32 -26.50704,0 L 99.034761,142.76682 c -7.320001,-7.32 -7.320001,-19.18773 0,-26.50705 L 116.26226,99.032268 c 7.32,-7.32 19.18772,-7.32 26.50704,0 L 268.48634,224.74931 c 7.31932,7.32 7.31932,19.18773 -6.8e-4,26.50773 z"
     id="path2" /><path
     style="fill:#c84146;stroke-width:0.681818"
     d="m 251.25816,268.48454 8.61409,-8.61409 -152.2234,-152.2234 -8.614089,8.61409 c -7.320001,7.32 -7.320001,19.18704 0,26.50704 L 224.75248,268.4859 c 7.31864,7.31796 19.18636,7.31796 26.50568,-0.001 z"
     id="path3" /><path
     style="fill:#7f8499;stroke-width:0.681818"
     d="m 389.33657,389.33476 v 0 c -4.87978,4.87977 -4.87978,12.79159 0,17.67068 l 17.67068,17.67068 17.67068,-17.67068 -17.67068,-17.67068 c -4.87909,-4.87909 -12.79091,-4.87909 -17.67068,0 z"
     id="path4" /><path
     d="m 278.44771,197.65318 39.5475,-39.5475 c 1.36909,-1.36909 1.97318,-3.32591 1.61318,-5.22886 -3.13023,-16.57023 1.84841,-33.40978 13.31863,-45.04364 8.11569,-8.232276 18.45682,-13.299548 29.90523,-14.654321 0.22773,-0.02727 0.83455,-0.09886 1.24023,0.737728 0.18818,0.388636 0.405,1.138636 -0.25978,1.80409 l -21.73909,21.739093 c -1.48022,1.48023 -2.05772,3.63614 -1.51568,5.65705 l 9.33546,34.84227 c 0.54204,2.02091 2.12045,3.6 4.14204,4.14204 l 34.84227,9.33546 c 2.02091,0.54136 4.17819,-0.0368 5.65705,-1.51568 l 21.74182,-21.74182 c 0.66477,-0.66546 1.41613,-0.44796 1.80545,-0.25909 0.8325,0.40363 0.76159,1.005 0.735,1.23136 -1.33704,11.32296 -6.315,21.57818 -14.39454,29.65773 -11.89091,11.89091 -28.87364,17.03727 -45.43364,13.76386 -1.91591,-0.37568 -3.89659,0.22364 -5.27727,1.605 l -45.17523,45.17523 c -2.2875,2.2875 -2.2875,5.9959 0,8.28272 1.14341,1.14341 2.64273,1.71546 4.14137,1.71546 1.49863,0 2.99795,-0.57137 4.14136,-1.71546 l 43.03295,-43.03295 c 19.38818,2.82136 38.94341,-3.60205 52.8525,-17.50977 9.95932,-9.95932 16.09568,-22.60432 17.745,-36.56727 0.65318,-5.53159 -2.19545,-10.69159 -7.25727,-13.14614 -5.18864,-2.51523 -11.15455,-1.52727 -15.19977,2.51727 l -19.35137,19.35069 -28.30909,-7.58455 -7.58454,-28.30909 19.34795,-19.34796 c 4.04523,-4.045226 5.03318,-10.011134 2.51727,-15.199089 -2.45659,-5.064545 -7.62136,-7.909773 -13.15772,-7.259318 -14.11841,1.671136 -26.86841,7.917272 -36.87068,18.063409 -13.44682,13.639778 -19.68341,33.004098 -16.99637,52.335688 l -37.42363,37.42431 c -2.2875,2.2875 -2.2875,5.99659 0,8.28273 2.28682,2.28682 5.99591,2.28682 8.28341,-6.8e-4 z"
     id="path5"
     style="stroke-width:0.681818" /><path
     d="m 239.35294,308.53726 -45.35046,45.35046 c -1.36909,1.36909 -1.97318,3.32591 -1.61318,5.22886 3.13023,16.57023 -1.84841,33.40977 -13.31864,45.04432 -8.11568,8.23227 -18.45681,13.29954 -29.90522,14.65431 -0.22773,0.0266 -0.83455,0.0982 -1.24023,-0.73772 -0.18818,-0.38796 -0.405,-1.13864 0.25977,-1.80409 l 21.73909,-21.73841 c 1.48023,-1.48023 2.05773,-3.63614 1.51569,-5.65705 l -9.33546,-34.84227 c -0.54204,-2.02091 -2.12045,-3.6 -4.14136,-4.14204 l -34.84227,-9.33614 c -2.02296,-0.54136 -4.17819,0.0368 -5.65841,1.51568 l -21.741818,21.74182 c -0.665455,0.66477 -1.416818,0.44795 -1.806137,0.25977 -0.831818,-0.40363 -0.76159,-1.00568 -0.734318,-1.23136 1.337046,-11.32296 6.315004,-21.57818 14.394543,-29.65773 11.89091,-11.89022 28.87568,-17.03659 45.43364,-13.76386 1.91863,0.37704 3.8959,-0.22227 5.27727,-1.605 l 39.37159,-39.37159 c 2.2875,-2.2875 2.2875,-5.99659 0,-8.28273 -2.2875,-2.2875 -5.99659,-2.2875 -8.28273,0 l -37.22932,37.22864 c -19.3875,-2.82 -38.94409,3.60204 -52.852489,17.50977 -9.959322,9.95932 -16.095685,22.60432 -17.745003,36.56727 -0.653182,5.53159 2.195454,10.69159 7.257272,13.14614 5.189318,2.51522 11.155231,1.52727 15.19977,-2.51728 l 19.35068,-19.35068 28.30977,7.58523 7.58455,28.30909 -19.34864,19.34864 c -4.04522,4.04522 -5.03318,10.01113 -2.51659,15.19977 2.22341,4.58318 6.66273,7.35204 11.58887,7.35204 0.51886,0 1.04181,-0.0314 1.56886,-0.0927 14.11841,-1.67046 26.86773,-7.91659 36.87,-18.06341 13.44682,-13.63977 19.68341,-33.00409 16.99636,-52.33636 l 43.22795,-43.22796 c 2.2875,-2.2875 2.2875,-5.99591 0,-8.28272 -2.28681,-2.28819 -5.9959,-2.28819 -8.2834,-6.9e-4 z"
     id="path6"
     style="stroke-width:0.681818" /><path
     d="m 176.87589,335.10294 c 1.14341,1.14341 2.64273,1.71546 4.14137,1.71546 1.49863,0 2.99795,-0.57136 4.14136,-1.71546 l 37.48636,-37.48636 c 2.2875,-2.2875 2.2875,-5.99591 0,-8.28272 -2.2875,-2.2875 -5.99591,-2.2875 -8.28273,0 l -37.48636,37.48636 c -2.2875,2.28682 -2.2875,5.99523 0,8.28272 z"
     id="path7"
     style="stroke-width:0.681818" /><path
     d="m 335.11361,176.88363 c -2.28681,-2.28818 -5.99522,-2.28886 -8.28272,-0.001 l -37.49386,37.4789 c -2.28819,2.28682 -2.28887,5.99523 -0.001,8.28273 1.14341,1.14409 2.64273,1.71682 4.14205,1.71682 1.49863,0 2.99727,-0.57137 4.14068,-1.71409 l 37.49386,-37.47887 c 2.28818,-2.28818 2.28886,-5.99659 0.001,-8.28409 z"
     id="path8"
     style="stroke-width:0.681818" /><path
     d="M 428.82066,402.86408 411.14998,385.1934 c -5.70682,-5.7075 -14.26091,-6.8475 -21.12341,-3.45273 L 286.37112,278.0859 298.0793,266.3784 c 2.2875,-2.2875 2.2875,-5.99659 0,-8.28273 -2.28682,-2.28818 -5.99523,-2.2875 -8.28273,0 l -2.8725,2.8725 -10.48704,-10.48704 c 5.5459,-9.4275 4.27636,-21.78682 -3.80864,-29.87182 L 146.91067,94.891586 c -4.64659,-4.647272 -10.82387,-7.206136 -17.39523,-7.206136 -6.57136,0 -12.74932,2.559545 -17.39523,7.206136 L 94.893396,112.11841 c -4.647272,4.64591 -7.206136,10.82454 -7.206136,17.39523 0,6.57068 2.558864,12.74863 7.206136,17.39522 L 220.61044,272.6259 c 4.79591,4.79591 11.09591,7.19318 17.39522,7.19318 4.32137,0 8.64137,-1.12841 12.47659,-3.38454 l 10.48705,10.48704 -2.41227,2.41228 c -2.2875,2.2875 -2.2875,5.9959 0,8.28272 1.14341,1.14409 2.64272,1.71546 4.14136,1.71546 1.49864,0 2.99795,-0.57137 4.14136,-1.71546 l 11.24728,-11.24727 103.65476,103.65545 c -3.39477,6.8625 -2.25477,15.41727 3.45205,21.12341 l 17.67068,17.67068 c 1.14341,1.14341 2.64273,1.71546 4.14136,1.71546 1.49864,0 2.99796,-0.57137 4.14137,-1.71546 l 17.67068,-17.67068 c 2.29023,-2.2875 2.29023,-5.99659 0.003,-8.28409 z M 228.89385,264.34249 103.1768,138.62545 c -2.43409,-2.43409 -3.774539,-5.67 -3.774539,-9.11181 0,-3.44182 1.340449,-6.67773 3.774539,-9.11182 l 17.2275,-17.22751 c 2.43409,-2.43409 5.67,-3.774542 9.11182,-3.774542 3.44182,0 6.67773,1.340452 9.11182,3.774542 l 125.71704,125.71705 c 5.02364,5.025 5.02364,13.19932 0,18.22363 l -17.2275,17.2275 c -5.02364,5.025 -13.19932,5.02432 -18.22363,0 z m 30.42613,4.36364 9.38795,-9.38796 9.93137,9.93137 -9.38796,9.38795 z m 147.68795,147.68795 -13.52932,-13.52932 c -2.58818,-2.58818 -2.58818,-6.79909 0,-9.38795 2.58818,-2.58819 6.79909,-2.58819 9.38796,0 l 13.52931,13.52931 z"
     id="path9"
     style="stroke-width:0.681818" /><path
     d="m 135.17317,126.88795 c -2.2875,-2.2875 -5.99659,-2.2875 -8.28273,0 -2.2875,2.2875 -2.2875,5.99659 0,8.28273 l 6.25227,6.25227 c 1.14341,1.14341 2.64273,1.71546 4.14137,1.71546 1.49863,0 2.99795,-0.57137 4.14136,-1.71546 2.2875,-2.2875 2.2875,-5.99659 0,-8.28272 z"
     id="path10"
     style="stroke-width:0.681818" /><path
     d="m 160.16862,151.88341 c -2.2875,-2.2875 -5.99659,-2.2875 -8.28273,0 -2.2875,2.2875 -2.2875,5.99659 0,8.28272 l 85.1025,85.1025 c 1.14341,1.14341 2.64273,1.71545 4.14136,1.71545 1.49864,0 2.99796,-0.57136 4.14137,-1.71545 2.2875,-2.2875 2.2875,-5.99659 0,-8.28273 z"
     id="path11"
     style="stroke-width:0.681818" /></g></svg>
